#!OML:ASF E:\Steps\Project 1\Capture day 1\Session 2\Subject.ASF
:FULLY-SPECIFIED
:DEGREES
144
root -0.151746 18.5352 17.3638 -160.567 -17.7171 183.837
lowerback -27.9728 -5.84181 -10.5562
upperback -0.425186 -4.76734 0.266881
thorax 15.1375 -3.06145 4.07308
lowerneck -3.41468 -4.94921 -1.55503
upperneck 22.9446 -10.3684 6.71997
head 8.09166 -5.25131 1.53561
rclavicle -3.89618e-014 -5.08889e-014
rhumerus -49.945 -20.441 -69.0918
rradius 31.9093
rwrist -2.12538
rhand -2.63586 -56.1945
rfingers 7.12502
rthumb 23.0634 -84.8343
lclavicle -3.89618e-014 -5.08889e-014
lhumerus -35.4881 -9.46157 75.6144
lradius 37.2597
lwrist 3.76793
lhand -20.1191 -10.9757
lfingers 7.12502
lthumb 6.22479 18.9129
rfemur -42.4131 5.65242 -1.17
rtibia 5.33944
rfoot 2.11077 -31.3232
rtoes -10.8482
lfemur -19.5749 -19.6862 -11.0244
ltibia 36.9367
lfoot -31.8397 -8.71759
ltoes 12.3616
145
root -0.115607 18.5111 17.2657 -160.522 -17.9144 183.742
lowerback -28.1034 -5.9375 -10.6079
upperback -0.438801 -4.86046 0.20739
thorax 15.1923 -3.10735 3.98641
lowerneck -3.03456 -4.80198 -1.39726
upperneck 22.5627 -10.0992 6.70492
head 7.87238 -5.12561 1.54927
rclavicle 1.17283e-014 3.81667e-014
rhumerus -50.4308 -20.5203 -68.7878
rradius 32.028
rwrist -2.18346
rhand -1.86703 -55.0487
rfingers 7.12502
rthumb 23.8009 -83.5945
lclavicle 1.17283e-014 3.81667e-014
lhumerus -35.612 -9.60322 75.3068
lradius 37.6519
lwrist 3.9618
lhand -19.8368 -10.9147
lfingers 7.12502
lthumb 6.49739 18.9657
rfemur -42.3639 5.59706 -1.53219
rtibia 5.11889
rfoot 2.05428 -32.0587
rtoes -9.32673
lfemur -19.1575 -19.6894 -10.9185
ltibia 36.7436
lfoot -32.0642 -9.03592
ltoes 12.6252
146
root -0.0792867 18.484 17.1601 -160.547 -18.1499 183.703
lowerback -28.2216 -6.03218 -10.6065
upperback -0.438092 -4.96868 0.156994
thorax 15.2584 -3.15616 3.87574
lowerneck -2.69328 -4.69113 -1.28561
upperneck 22.3167 -9.96399 6.85503
head 7.72511 -5.06031 1.60697
rclavicle 7.55382e-015 1.90833e-014
rhumerus -50.9872 -20.5994 -68.5129
rradius 32.2059
rwrist -2.11561
rhand -2.27339 -57.035
rfingers 7.12502
rthumb 23.4112 -85.631
lclavicle 7.55382e-015 1.90833e-014
lhumerus -35.6613 -9.57794 74.9517
lradius 37.8614
lwrist 3.828
lhand -19.683 -10.9232
lfingers 7.12502
lthumb 6.64582 18.9525
rfemur -42.1919 5.52682 -1.76476
rtibia 4.92027
rfoot 2.06804 -32.4665
rtoes -8.61137
lfemur -18.589 -19.825 -10.7777
ltibia 36.4366
lfoot -32.2421 -9.13771
ltoes 12.7567
147
root -0.0406554 18.4588 17.054 -160.546 -18.3315 183.623
lowerback -28.3483 -6.13449 -10.6974
upperback -0.423363 -5.05733 0.139529
thorax 15.3515 -3.20431 3.85645
lowerneck -2.49982 -4.68698 -1.2165
upperneck 22.2206 -9.97799 6.91226
head 7.65924 -5.0699 1.62104
rclavicle 4.83047e-014 2.54444e-014
rhumerus -51.2864 -20.601 -68.2159
rradius 32.0831
rwrist -2.31028
rhand -2.71004 -56.1726
rfingers 7.12502
rthumb 22.9922 -84.8213
lclavicle 4.83047e-014 2.54444e-014
lhumerus -35.702 -9.73823 74.7172
lradius 38.0402
lwrist 3.74489
lhand -19.667 -10.9451
lfingers 7.12502
lthumb 6.66124 18.9302
rfemur -42.1188 5.77491 -2.2568
rtibia 4.86869
rfoot 1.63001 -33.0527
rtoes -7.00993
lfemur -18.0264 -19.9881 -10.666
ltibia 36.1176
lfoot -32.3757 -9.15733
ltoes 12.3948
148
root -0.00157806 18.4343 16.9537 -160.454 -18.5046 183.535
lowerback -28.4159 -6.18863 -10.7417
upperback -0.501126 -5.11957 0.12807
thorax 15.3005 -3.23465 3.83766
lowerneck -2.49637 -4.78103 -1.20809
upperneck 22.4403 -10.1425 6.78681
head 7.73326 -5.16305 1.56154
rclavicle -4.9398e-014 5.40694e-014
rhumerus -51.7105 -20.5007 -67.8301
rradius 31.9523
rwrist -2.70649
rhand -2.6118 -56.1731
rfingers 7.12502
rthumb 23.0865 -84.81
lclavicle -4.9398e-014 5.40694e-014
lhumerus -35.8961 -10.1695 74.6387
lradius 38.3723
lwrist 3.98845
lhand -19.6327 -10.8591
lfingers 7.12502
lthumb 6.69442 19.015
rfemur -42.2029 6.04381 -2.81074
rtibia 4.85708
rfoot 1.23973 -33.7806
rtoes -5.34676
lfemur -17.6891 -20.0981 -10.5084
ltibia 35.9862
lfoot -32.5315 -9.67802
ltoes 14.3997
